<svg width="19" height="15" viewBox="0 0 19 15" fill="none" xmlns="http://www.w3.org/2000/svg">
<path d="M9.5 12.1875C9.76917 12.1875 9.99479 12.0977 10.1769 11.918C10.359 11.7383 10.45 11.5156 10.45 11.25C10.45 10.9844 10.359 10.7617 10.1769 10.582C9.99479 10.4023 9.76917 10.3125 9.5 10.3125C9.23083 10.3125 9.00521 10.4023 8.82312 10.582C8.64104 10.7617 8.55 10.9844 8.55 11.25C8.55 11.5156 8.64104 11.7383 8.82312 11.918C9.00521 12.0977 9.23083 12.1875 9.5 12.1875ZM9.5 8.4375C9.76917 8.4375 9.99479 8.34766 10.1769 8.16797C10.359 7.98828 10.45 7.76562 10.45 7.5C10.45 7.23438 10.359 7.01172 10.1769 6.83203C9.99479 6.65234 9.76917 6.5625 9.5 6.5625C9.23083 6.5625 9.00521 6.65234 8.82312 6.83203C8.64104 7.01172 8.55 7.23438 8.55 7.5C8.55 7.76562 8.64104 7.98828 8.82312 8.16797C9.00521 8.34766 9.23083 8.4375 9.5 8.4375ZM9.5 4.6875C9.76917 4.6875 9.99479 4.59766 10.1769 4.41797C10.359 4.23828 10.45 4.01562 10.45 3.75C10.45 3.48438 10.359 3.26172 10.1769 3.08203C9.99479 2.90234 9.76917 2.8125 9.5 2.8125C9.23083 2.8125 9.00521 2.90234 8.82312 3.08203C8.64104 3.26172 8.55 3.48438 8.55 3.75C8.55 4.01562 8.64104 4.23828 8.82312 4.41797C9.00521 4.59766 9.23083 4.6875 9.5 4.6875ZM17.1 15H1.9C1.3775 15 0.930208 14.8164 0.558125 14.4492C0.186042 14.082 0 13.6406 0 13.125V9.375C0.5225 9.375 0.969792 9.19141 1.34187 8.82422C1.71396 8.45703 1.9 8.01562 1.9 7.5C1.9 6.98438 1.71396 6.54297 1.34187 6.17578C0.969792 5.80859 0.5225 5.625 0 5.625V1.875C0 1.35938 0.186042 0.917969 0.558125 0.550781C0.930208 0.183594 1.3775 0 1.9 0H17.1C17.6225 0 18.0698 0.183594 18.4419 0.550781C18.814 0.917969 19 1.35938 19 1.875V5.625C18.4775 5.625 18.0302 5.80859 17.6581 6.17578C17.286 6.54297 17.1 6.98438 17.1 7.5C17.1 8.01562 17.286 8.45703 17.6581 8.82422C18.0302 9.19141 18.4775 9.375 19 9.375V13.125C19 13.6406 18.814 14.082 18.4419 14.4492C18.0698 14.8164 17.6225 15 17.1 15ZM17.1 13.125V10.7344C16.5142 10.3906 16.051 9.93359 15.7106 9.36328C15.3702 8.79297 15.2 8.17188 15.2 7.5C15.2 6.82812 15.3702 6.20703 15.7106 5.63672C16.051 5.06641 16.5142 4.60938 17.1 4.26562V1.875H1.9V4.26562C2.48583 4.60938 2.94896 5.06641 3.28938 5.63672C3.62979 6.20703 3.8 6.82812 3.8 7.5C3.8 8.17188 3.62979 8.79297 3.28938 9.36328C2.94896 9.93359 2.48583 10.3906 1.9 10.7344V13.125H17.1Z" fill="#05CDC2"/>
</svg>
