<svg width="19" height="19" viewBox="0 0 19 19" fill="none" xmlns="http://www.w3.org/2000/svg">
<path d="M11.875 15.8333C10.1069 15.8333 8.60938 15.2198 7.3823 13.9927C6.15521 12.7656 5.54167 11.268 5.54167 9.49999C5.54167 7.74513 6.15521 6.25086 7.3823 5.01718C8.60938 3.7835 10.1069 3.16666 11.875 3.16666C13.6299 3.16666 15.1241 3.7835 16.3578 5.01718C17.5915 6.25086 18.2083 7.74513 18.2083 9.49999C18.2083 11.268 17.5915 12.7656 16.3578 13.9927C15.1241 15.2198 13.6299 15.8333 11.875 15.8333ZM11.875 14.25C13.1944 14.25 14.316 13.7882 15.2396 12.8646C16.1632 11.941 16.625 10.8194 16.625 9.49999C16.625 8.18055 16.1632 7.05902 15.2396 6.13541C14.316 5.2118 13.1944 4.74999 11.875 4.74999C10.5556 4.74999 9.43403 5.2118 8.51042 6.13541C7.58681 7.05902 7.125 8.18055 7.125 9.49999C7.125 10.8194 7.58681 11.941 8.51042 12.8646C9.43403 13.7882 10.5556 14.25 11.875 14.25ZM13.676 12.4489L14.8042 11.3208L12.6667 9.18332V6.33332H11.0833V9.83645L13.676 12.4489ZM1.58334 7.12499V5.54166H4.75001V7.12499H1.58334ZM0.791672 10.2917V8.70832H4.75001V10.2917H0.791672ZM1.58334 13.4583V11.875H4.75001V13.4583H1.58334Z" fill="#05CDC2"/>
</svg>
