<svg width="23" height="23" viewBox="0 0 23 23" fill="none" xmlns="http://www.w3.org/2000/svg">
<path d="M9.58333 20.4604L8.19375 19.2146C6.58056 17.7611 5.24687 16.5073 4.19271 15.4531C3.13854 14.399 2.3 13.4526 1.67708 12.6141C1.05417 11.7755 0.618924 11.0049 0.371354 10.3021C0.123785 9.59931 0 8.88056 0 8.14583C0 6.64444 0.503125 5.39062 1.50937 4.38437C2.51562 3.37813 3.76944 2.875 5.27083 2.875C6.10139 2.875 6.89201 3.05069 7.64271 3.40208C8.3934 3.75347 9.04028 4.24861 9.58333 4.8875C10.1264 4.24861 10.7733 3.75347 11.524 3.40208C12.2747 3.05069 13.0653 2.875 13.8958 2.875C15.3972 2.875 16.651 3.37813 17.6573 4.38437C18.6635 5.39062 19.1667 6.64444 19.1667 8.14583C19.1667 8.88056 19.0429 9.59931 18.7953 10.3021C18.5477 11.0049 18.1125 11.7755 17.4896 12.6141C16.8667 13.4526 16.0281 14.399 14.974 15.4531C13.9198 16.5073 12.5861 17.7611 10.9729 19.2146L9.58333 20.4604ZM9.58333 17.8729C11.1167 16.4993 12.3785 15.3214 13.3687 14.3391C14.359 13.3568 15.1417 12.5023 15.7167 11.7755C16.2917 11.0488 16.691 10.4019 16.9146 9.8349C17.1382 9.26788 17.25 8.70486 17.25 8.14583C17.25 7.1875 16.9306 6.38889 16.2917 5.75C15.6528 5.11111 14.8542 4.79167 13.8958 4.79167C13.1451 4.79167 12.4503 5.0033 11.8115 5.42656C11.1726 5.84983 10.7333 6.38889 10.4937 7.04375H8.67292C8.43333 6.38889 7.9941 5.84983 7.35521 5.42656C6.71632 5.0033 6.02153 4.79167 5.27083 4.79167C4.3125 4.79167 3.51389 5.11111 2.875 5.75C2.23611 6.38889 1.91667 7.1875 1.91667 8.14583C1.91667 8.70486 2.02847 9.26788 2.25208 9.8349C2.47569 10.4019 2.875 11.0488 3.45 11.7755C4.025 12.5023 4.80764 13.3568 5.79792 14.3391C6.78819 15.3214 8.05 16.4993 9.58333 17.8729Z" fill="white"/>
</svg>
