<svg width="26" height="27" viewBox="0 0 26 27" fill="none" xmlns="http://www.w3.org/2000/svg">
<path d="M13 13.5C13.5958 13.5 14.1059 13.2797 14.5302 12.8391C14.9545 12.3984 15.1667 11.8687 15.1667 11.25C15.1667 10.6313 14.9545 10.1016 14.5302 9.66094C14.1059 9.22031 13.5958 9 13 9C12.4042 9 11.8941 9.22031 11.4698 9.66094C11.0455 10.1016 10.8333 10.6313 10.8333 11.25C10.8333 11.8687 11.0455 12.3984 11.4698 12.8391C11.8941 13.2797 12.4042 13.5 13 13.5ZM13 21.7688C15.2028 19.6688 16.8368 17.7609 17.9021 16.0453C18.9674 14.3297 19.5 12.8062 19.5 11.475C19.5 9.43125 18.8726 7.75781 17.6177 6.45469C16.3629 5.15156 14.8236 4.5 13 4.5C11.1764 4.5 9.63716 5.15156 8.3823 6.45469C7.12744 7.75781 6.50001 9.43125 6.50001 11.475C6.50001 12.8062 7.03265 14.3297 8.09793 16.0453C9.1632 17.7609 10.7972 19.6688 13 21.7688ZM13 24.75C10.0931 22.1812 7.92189 19.7953 6.48647 17.5922C5.05105 15.3891 4.33334 13.35 4.33334 11.475C4.33334 8.6625 5.20452 6.42188 6.94689 4.75313C8.68925 3.08438 10.707 2.25 13 2.25C15.2931 2.25 17.3108 3.08438 19.0531 4.75313C20.7955 6.42188 21.6667 8.6625 21.6667 11.475C21.6667 13.35 20.949 15.3891 19.5136 17.5922C18.0781 19.7953 15.907 22.1812 13 24.75Z" fill="#05CDC2"/>
</svg>
