<svg width="19" height="13" viewBox="0 0 19 13" fill="none" xmlns="http://www.w3.org/2000/svg">
<path d="M11.2273 7.3125C10.5076 7.3125 9.89583 7.07552 9.39205 6.60156C8.88826 6.1276 8.63636 5.55208 8.63636 4.875C8.63636 4.19792 8.88826 3.6224 9.39205 3.14844C9.89583 2.67448 10.5076 2.4375 11.2273 2.4375C11.947 2.4375 12.5587 2.67448 13.0625 3.14844C13.5663 3.6224 13.8182 4.19792 13.8182 4.875C13.8182 5.55208 13.5663 6.1276 13.0625 6.60156C12.5587 7.07552 11.947 7.3125 11.2273 7.3125ZM5.18182 9.75C4.70682 9.75 4.30019 9.59089 3.96193 9.27266C3.62367 8.95443 3.45455 8.57187 3.45455 8.125V1.625C3.45455 1.17812 3.62367 0.795573 3.96193 0.477344C4.30019 0.159115 4.70682 0 5.18182 0H17.2727C17.7477 0 18.1544 0.159115 18.4926 0.477344C18.8309 0.795573 19 1.17812 19 1.625V8.125C19 8.57187 18.8309 8.95443 18.4926 9.27266C18.1544 9.59089 17.7477 9.75 17.2727 9.75H5.18182ZM6.90909 8.125H15.5455C15.5455 7.67812 15.7146 7.29557 16.0528 6.97734C16.3911 6.65911 16.7977 6.5 17.2727 6.5V3.25C16.7977 3.25 16.3911 3.09089 16.0528 2.77266C15.7146 2.45443 15.5455 2.07187 15.5455 1.625H6.90909C6.90909 2.07187 6.73996 2.45443 6.4017 2.77266C6.06345 3.09089 5.65682 3.25 5.18182 3.25V6.5C5.65682 6.5 6.06345 6.65911 6.4017 6.97734C6.73996 7.29557 6.90909 7.67812 6.90909 8.125ZM16.4091 13H1.72727C1.25227 13 0.845644 12.8409 0.507386 12.5227C0.169129 12.2044 0 11.8219 0 11.375V2.4375H1.72727V11.375H16.4091V13Z" fill="#05CDC2"/>
</svg>
