<svg width="19" height="19" viewBox="0 0 19 19" fill="none" xmlns="http://www.w3.org/2000/svg">
<path d="M11.0833 10.2917C10.4236 10.2917 9.86284 10.0608 9.40103 9.59898C8.93923 9.13717 8.70832 8.57641 8.70832 7.91669C8.70832 7.25696 8.93923 6.6962 9.40103 6.2344C9.86284 5.77259 10.4236 5.54169 11.0833 5.54169C11.743 5.54169 12.3038 5.77259 12.7656 6.2344C13.2274 6.6962 13.4583 7.25696 13.4583 7.91669C13.4583 8.57641 13.2274 9.13717 12.7656 9.59898C12.3038 10.0608 11.743 10.2917 11.0833 10.2917ZM5.54166 12.6667C5.10624 12.6667 4.7335 12.5117 4.42343 12.2016C4.11336 11.8915 3.95832 11.5188 3.95832 11.0834V4.75002C3.95832 4.3146 4.11336 3.94186 4.42343 3.63179C4.7335 3.32172 5.10624 3.16669 5.54166 3.16669H16.625C17.0604 3.16669 17.4331 3.32172 17.7432 3.63179C18.0533 3.94186 18.2083 4.3146 18.2083 4.75002V11.0834C18.2083 11.5188 18.0533 11.8915 17.7432 12.2016C17.4331 12.5117 17.0604 12.6667 16.625 12.6667H5.54166ZM7.12499 11.0834H15.0417C15.0417 10.6479 15.1967 10.2752 15.5068 9.96512C15.8168 9.65506 16.1896 9.50002 16.625 9.50002V6.33335C16.1896 6.33335 15.8168 6.17832 15.5068 5.86825C15.1967 5.55818 15.0417 5.18544 15.0417 4.75002H7.12499C7.12499 5.18544 6.96995 5.55818 6.65989 5.86825C6.34982 6.17832 5.97707 6.33335 5.54166 6.33335V9.50002C5.97707 9.50002 6.34982 9.65506 6.65989 9.96512C6.96995 10.2752 7.12499 10.6479 7.12499 11.0834ZM15.8333 15.8334H2.37499C1.93957 15.8334 1.56683 15.6783 1.25676 15.3682C0.946691 15.0582 0.791656 14.6854 0.791656 14.25V5.54169H2.37499V14.25H15.8333V15.8334Z" fill="#05CDC2"/>
</svg>
